<svg xmlns="http://www.w3.org/2000/svg" version="1.1" xmlns:xlink="http://www.w3.org/1999/xlink" xmlns:svgjs="http://svgjs.dev/svgjs" width="1440" height="560" preserveAspectRatio="none" viewBox="0 0 1440 560"><g mask="url(&quot;#SvgjsMask1000&quot;)" fill="none"><rect width="1440" height="560" x="0" y="0" fill="#1e3266"></rect><path d="M1536 560L0 560 L0 285.89Q77.56 291.45, 72 369.02Q84.52 309.54, 144 322.07Q166.53 272.6, 216 295.13Q298.76 257.89, 336 340.65Q380.18 264.83, 456 309.01Q485.59 266.6, 528 296.19Q558.48 254.67, 600 285.15Q648.2 261.35, 672 309.54Q725.83 243.37, 792 297.2Q853.24 286.44, 864 347.67Q935.54 299.21, 984 370.74Q1037.53 304.27, 1104 357.8Q1151.6 285.4, 1224 333Q1252.42 289.42, 1296 317.84Q1369.49 271.33, 1416 344.83Q1489.73 298.56, 1536 372.29z" fill="#182f5d"></path><path d="M1488 560L0 560 L0 447.59Q-11.83 363.76, 72 351.93Q118.13 326.06, 144 372.2Q216.44 372.64, 216 445.09Q252.56 361.65, 336 398.21Q377.74 367.95, 408 409.69Q456.08 337.77, 528 385.85Q591.67 377.52, 600 441.19Q617.34 386.53, 672 403.88Q687.75 347.63, 744 363.37Q818.99 318.36, 864 393.35Q906.89 364.25, 936 407.14Q978.62 329.75, 1056 372.37Q1102.03 346.4, 1128 392.44Q1202.68 347.12, 1248 421.8Q1315.3 369.1, 1368 436.39Q1397.8 346.19, 1488 375.99z" fill="#25467d"></path><path d="M1464 560L0 560 L0 434.26Q30.08 392.34, 72 422.42Q131.2 409.62, 144 468.82Q199.07 451.89, 216 506.97Q216.93 435.9, 288 436.83Q317.39 394.22, 360 423.6Q446.05 389.65, 480 475.7Q533.36 409.06, 600 462.41Q655.09 445.5, 672 500.58Q723.11 431.69, 792 482.8Q806.16 424.97, 864 439.13Q910.99 414.12, 936 461.11Q993.26 446.37, 1008 503.63Q1009.55 433.18, 1080 434.72Q1133.13 367.85, 1200 420.97Q1250.55 399.51, 1272 450.06Q1333.34 439.39, 1344 500.73Q1410.69 447.42, 1464 514.11z" fill="#356cb1"></path><path d="M1536 560L0 560 L0 554.84Q45.5 480.34, 120 525.84Q209.62 495.46, 240 585.07Q262 487.07, 360 509.06Q436.1 465.16, 480 541.27Q562.61 503.88, 600 586.49Q628.07 494.56, 720 522.63Q798.51 481.14, 840 559.66Q867.75 515.4, 912 543.15Q966.84 525.99, 984 580.82Q1004.72 481.54, 1104 502.26Q1145.1 471.36, 1176 512.45Q1265.05 481.5, 1296 570.56Q1337.14 491.7, 1416 532.84Q1460.64 457.48, 1536 502.12z" fill="white"></path></g><defs><mask id="SvgjsMask1000"><rect width="1440" height="560" fill="#ffffff"></rect></mask></defs></svg>